#!OML:ASF X:\für Bonn\!DataBase\2005_08_12_Daniel\c3d\Daniel.ASF
:FULLY-SPECIFIED
:DEGREES
1
root 0.125599 17.4723 -20.1011 351.13 6.90799 -4.05292
lowerback 21.5098 -2.87356 8.03161
upperback 6.87642 -2.0313 0.0220958
thorax -4.73415 -0.960268 -4.03769
lowerneck 4.59583 0.274426 -2.02182
upperneck 27.885 0.259841 1.08997
head 7.86013 0.0312998 0.730882
rclavicle 1.16786e-014 2.16178e-014
rhumerus 149.958 -146.262 -250.08
rradius 11.2752
rwrist 50.0791
rhand -17.1102 14.8708
rfingers 7.12502
rthumb 9.12899 -14.9116
lclavicle 1.16786e-014 2.16178e-014
lhumerus -35.4627 32.5094 73.6811
lradius 25.1152
lwrist -26.6935
lhand -7.51695 -4.6265
lfingers 7.12502
lthumb 18.3736 24.5258
rfemur -9.00283 11.9462 24.8937
rtibia 27.8991
rfoot -13.9475 -10.8513
rtoes -4.4945
lfemur -14.2718 -4.00757 -12.4587
ltibia 67.9076
lfoot -11.1631 -9.84929
ltoes -5.49808
2
root 0.131108 17.4816 -20.0036 351.096 7.00111 -4.00327
lowerback 21.6353 -2.76354 8.09846
upperback 6.88816 -1.86429 -0.0161734
thorax -4.7662 -0.878393 -4.15878
lowerneck 4.81155 0.168898 -2.03968
upperneck 28.0498 0.0868306 1.22715
head 7.883 -0.0396315 0.772242
rclavicle 8.4235e-015 -2.69353e-014
rhumerus 150.634 -147.281 -250.733
rradius 11.4213
rwrist 49.1406
rhand -17.2061 14.8521
rfingers 7.12502
rthumb 9.03648 -14.9343
lclavicle 8.4235e-015 -2.69353e-014
lhumerus -35.0075 31.4292 74.4165
lradius 25.8093
lwrist -25.3307
lhand -7.77074 -4.61503
lfingers 7.12502
lthumb 18.1294 24.5601
rfemur -8.616 11.6682 24.9162
rtibia 27.9648
rfoot -14.1925 -10.6177
rtoes -4.68465
lfemur -14.9015 -4.2683 -12.5579
ltibia 66.7973
lfoot -11.9609 -9.78761
ltoes -5.87334
3
root 0.138282 17.4898 -19.9057 351.092 7.13531 -3.95374
lowerback 21.6906 -2.66376 8.18144
upperback 6.91999 -1.71505 -0.0609054
thorax -4.74243 -0.802508 -4.2933
lowerneck 4.97066 0.055955 -2.05737
upperneck 28.2216 -0.0984414 1.37802
head 7.91862 -0.115053 0.817977
rclavicle 3.69988e-014 -3.49613e-014
rhumerus 151.314 -148.167 -251.336
rradius 11.5766
rwrist 48.1952
rhand -17.2757 14.8552
rfingers 7.12502
rthumb 8.96927 -14.9341
lclavicle 3.69988e-014 -3.49613e-014
lhumerus -34.5257 30.3637 75.1205
lradius 26.4711
lwrist -24.0705
lhand -8.10812 -4.66667
lfingers 7.12502
lthumb 17.8048 24.5382
rfemur -8.26956 11.3405 24.9231
rtibia 28.0337
rfoot -14.4419 -10.4236
rtoes -4.93877
lfemur -15.5136 -4.59537 -12.6638
ltibia 65.5433
lfoot -12.7918 -9.68676
ltoes -6.50289
4
root 0.146651 17.4953 -19.8056 351.077 7.2773 -3.9008
lowerback 21.7139 -2.57688 8.25208
upperback 6.95774 -1.58793 -0.0963426
thorax -4.69765 -0.73651 -4.4055
lowerneck 5.19889 -0.0363702 -2.09554
upperneck 28.3195 -0.249236 1.49786
head 7.91675 -0.178763 0.858271
rclavicle -3.01904e-014 8.97016e-015
rhumerus 151.992 -149.046 -251.876
rradius 11.6917
rwrist 47.2997
rhand -17.4074 14.896
rfingers 7.12502
rthumb 8.84221 -14.8987
lclavicle -3.01904e-014 8.97016e-015
lhumerus -34.1288 29.4419 75.7539
lradius 27.1657
lwrist -22.9211
lhand -8.3342 -4.80248
lfingers 7.12502
lthumb 17.5873 24.422
rfemur -7.90543 11.0815 24.924
rtibia 28.1062
rfoot -14.7214 -10.2583
rtoes -5.20602
lfemur -16.0123 -4.97421 -12.7742
ltibia 64.0955
lfoot -13.7006 -9.54116
ltoes -7.1372
5
root 0.155187 17.4995 -19.7059 351.076 7.44794 -3.83475
lowerback 21.7144 -2.49088 8.30864
upperback 6.98272 -1.46706 -0.139764
thorax -4.65563 -0.673984 -4.51686
lowerneck 5.47778 -0.129945 -2.11859
upperneck 28.3911 -0.405693 1.63066
head 7.89759 -0.24275 0.900155
rclavicle 7.04443e-015 -1.51325e-014
rhumerus 152.626 -150.245 -252.521
rradius 11.9282
rwrist 46.0484
rhand -17.4131 14.8788
rfingers 7.12502
rthumb 8.83675 -14.9162
lclavicle 7.04443e-015 -1.51325e-014
lhumerus -33.741 28.5105 76.3466
lradius 27.8149
lwrist -21.845
lhand -8.66742 -4.99863
lfingers 7.12502
lthumb 17.2666 24.2543
rfemur -7.55685 10.777 24.8954
rtibia 28.1683
rfoot -14.9916 -10.0981
rtoes -5.3539
lfemur -16.4622 -5.38389 -12.8842
ltibia 62.4893
lfoot -14.5261 -9.38171
ltoes -7.79499
6
root 0.165677 17.5053 -19.6047 351.059 7.60701 -3.7993
lowerback 21.6911 -2.41514 8.41641
upperback 7.02675 -1.35202 -0.184334
thorax -4.58119 -0.612147 -4.65745
lowerneck 5.65453 -0.214824 -2.17511
upperneck 28.5169 -0.556658 1.80209
head 7.91495 -0.30432 0.961711
rclavicle 2.79417e-014 4.5969e-015
rhumerus 153.281 -151.637 -253.226
rradius 12.1871
rwrist 44.5687
rhand -17.4977 14.7879
rfingers 7.12502
rthumb 8.75506 -15.0105
lclavicle 2.79417e-014 4.5969e-015
lhumerus -33.3509 27.5589 76.9405
lradius 28.4914
lwrist -20.7513
lhand -8.96701 -5.14256
lfingers 7.12502
lthumb 16.9782 24.1354
rfemur -7.16903 10.5139 24.9068
rtibia 28.2006
rfoot -15.2579 -9.96308
rtoes -5.66567
lfemur -16.7899 -5.84272 -12.9619
ltibia 60.7245
lfoot -15.1663 -9.20066
ltoes -8.38392
7
root 0.176652 17.513 -19.505 351.034 7.79383 -3.74855
lowerback 21.6895 -2.35855 8.50404
upperback 7.06029 -1.26405 -0.239653
thorax -4.53266 -0.56472 -4.79085
lowerneck 5.81769 -0.29849 -2.17585
upperneck 28.648 -0.690396 1.89914
head 7.93632 -0.358141 0.989583
rclavicle 4.28629e-016 -1.24737e-014
rhumerus 153.847 -152.864 -253.836
rradius 12.4622
rwrist 43.2263
rhand -17.6329 14.7441
rfingers 7.12502
rthumb 8.62465 -15.0597
lclavicle 4.28629e-016 -1.24737e-014
lhumerus -33.0079 26.8434 77.4173
lradius 29.1103
lwrist -19.9056
lhand -9.23997 -5.3723
lfingers 7.12502
lthumb 16.7154 23.9281
rfemur -6.73943 10.2411 24.8943
rtibia 28.1727
rfoot -15.5074 -9.87445
rtoes -5.79714
lfemur -17.0593 -6.36136 -13.0496
ltibia 58.8359
lfoot -15.5281 -9.01849
ltoes -8.51582
8
root 0.189364 17.5231 -19.4063 351.028 7.96253 -3.69917
lowerback 21.6553 -2.29388 8.58579
upperback 7.09273 -1.16974 -0.288003
thorax -4.46716 -0.513565 -4.91509
lowerneck 5.99143 -0.379042 -2.16905
upperneck 28.754 -0.817121 1.98349
head 7.94718 -0.408889 1.01221
rclavicle 2.42517e-014 -1.93318e-014
rhumerus 154.377 -154.147 -254.413
rradius 12.7759
rwrist 41.7999
rhand -17.7054 14.7451
rfingers 7.12502
rthumb 8.55468 -15.0616
lclavicle 2.42517e-014 -1.93318e-014
lhumerus -32.6518 26.1585 77.9008
lradius 29.683
lwrist -19.0727
lhand -9.49186 -5.55275
lfingers 7.12502
lthumb 16.4729 23.7679
rfemur -6.30172 9.93782 24.8683
rtibia 28.0851
rfoot -15.6939 -9.7311
rtoes -5.94732
lfemur -17.2543 -6.9037 -13.1329
ltibia 56.8263
lfoot -15.8036 -8.77199
ltoes -8.29573
9
root 0.202548 17.5317 -19.3083 351.025 8.1193 -3.66309
lowerback 21.6233 -2.22895 8.67267
upperback 7.11839 -1.07367 -0.336378
thorax -4.40937 -0.461964 -5.04254
lowerneck 6.18326 -0.46009 -2.15859
upperneck 28.8393 -0.949227 2.08697
head 7.94812 -0.460493 1.04046
rclavicle -1.27968e-014 1.2921e-014
rhumerus 154.848 -155.513 -254.99
rradius 13.1578
rwrist 40.2432
rhand -17.7384 14.6454
rfingers 7.12502
rthumb 8.52277 -15.1626
lclavicle -1.27968e-014 1.2921e-014
lhumerus -32.3328 25.5003 78.3529
lradius 30.2595
lwrist -18.2707
lhand -9.71773 -5.76001
lfingers 7.12502
lthumb 16.2555 23.5786
rfemur -5.82527 9.6769 24.8603
rtibia 27.926
rfoot -15.8946 -9.6418
rtoes -6.16762
lfemur -17.381 -7.44441 -13.1812
ltibia 54.7163
lfoot -15.9458 -8.47225
ltoes -7.63545
10
root 0.217824 17.5417 -19.2119 351.009 8.28364 -3.63126
lowerback 21.5968 -2.17979 8.75885
upperback 7.1491 -0.998184 -0.390299
thorax -4.35158 -0.420099 -5.17026
lowerneck 6.35924 -0.544273 -2.07282
upperneck 28.9396 -1.06968 2.11521
head 7.95639 -0.504953 1.03097
rclavicle -3.04389e-015 4.99446e-015
rhumerus 155.288 -156.935 -255.57
rradius 13.5492
rwrist 38.5457
rhand -17.7903 14.5938
rfingers 7.12502
rthumb 8.47268 -15.2162
lclavicle -3.04389e-015 4.99446e-015
lhumerus -32.0125 24.9698 78.7442
lradius 30.786
lwrist -17.6417
lhand -9.85487 -6.00726
lfingers 7.12502
lthumb 16.1234 23.3421
rfemur -5.30898 9.38981 24.8435
rtibia 27.6974
rfoot -16.0332 -9.53182
rtoes -6.33411
lfemur -17.4409 -8.04429 -13.2272
ltibia 52.5511
lfoot -15.9258 -8.05423
ltoes -6.8953
11
root 0.233812 17.5543 -19.1166 350.991 8.41999 -3.61746
lowerback 21.5571 -2.12704 8.82725
upperback 7.18591 -0.922438 -0.426837
thorax -4.27973 -0.377475 -5.26882
lowerneck 6.59878 -0.623622 -1.98699
upperneck 28.9618 -1.17353 2.09958
head 7.92621 -0.54556 1.00724
rclavicle 6.1499e-015 -2.80783e-015
rhumerus 155.714 -158.337 -256.098
rradius 13.9459
rwrist 36.8551
rhand -17.8515 14.4695
rfingers 7.12502
rthumb 8.41367 -15.3429
lclavicle 6.1499e-015 -2.80783e-015
lhumerus -31.7166 24.4406 79.1418
lradius 31.3331
lwrist -17.0095
lhand -9.92242 -6.24069
lfingers 7.12502
lthumb 16.0584 23.1139
rfemur -4.73787 9.12542 24.8473
rtibia 27.3685
rfoot -16.143 -9.43208
rtoes -6.52779
lfemur -17.4692 -8.61755 -13.2359
ltibia 50.363
lfoot -15.8511 -7.5959
ltoes -6.301
12
root 0.251604 17.5684 -19.0223 350.987 8.52185 -3.59762
lowerback 21.5233 -2.06239 8.88417
upperback 7.20537 -0.832367 -0.460699
thorax -4.22739 -0.329352 -5.3613
lowerneck 6.692 -0.704691 -1.95679
upperneck 29.1182 -1.28765 2.12537
head 7.96829 -0.592391 1.00716
rclavicle 1.64867e-014 -1.83876e-014
rhumerus 156.105 -159.686 -256.575
rradius 14.3304
rwrist 35.0952
rhand -17.8381 14.3813
rfingers 7.12502
rthumb 8.42661 -15.4306
lclavicle 1.64867e-014 -1.83876e-014
lhumerus -31.4395 23.8413 79.5453
lradius 31.8516
lwrist -16.2918
lhand -9.94738 -6.42533
lfingers 7.12502
lthumb 16.0343 22.9312
rfemur -4.12868 8.89823 24.839
rtibia 26.9381
rfoot -16.2012 -9.34461
rtoes -6.71194
lfemur -17.4791 -9.21208 -13.2512
ltibia 48.1993
lfoot -15.6584 -7.02216
ltoes -6.31279
13
root 0.270159 17.5881 -18.9295 351.004 8.61379 -3.59868
lowerback 21.4501 -1.99653 8.95059
upperback 7.23147 -0.743571 -0.499953
thorax -4.14745 -0.28027 -5.46462
lowerneck 6.65835 -0.783993 -1.89424
upperneck 29.3251 -1.39672 2.14043
head 8.04905 -0.633618 0.997824
rclavicle 7.72775e-015 -1.93815e-015
rhumerus 156.476 -160.95 -257.031
rradius 14.728
rwrist 33.3759
rhand -17.8173 14.241
rfingers 7.12502
rthumb 8.44669 -15.5701
lclavicle 7.72775e-015 -1.93815e-015
lhumerus -31.1426 23.3235 79.9167
lradius 32.3289
lwrist -15.6665
lhand -9.90344 -6.58994
lfingers 7.12502
lthumb 16.0766 22.7632
rfemur -3.50352 8.61741 24.8413
rtibia 26.4149
rfoot -16.1974 -9.23219
rtoes -6.97644
lfemur -17.5245 -9.85777 -13.2309
ltibia 46.0591
lfoot -15.27 -6.37203
ltoes -6.56272
14
root 0.290534 17.6052 -18.8385 350.986 8.66503 -3.61686
lowerback 21.4251 -1.93542 9.02116
upperback 7.25079 -0.654358 -0.528123
thorax -4.09905 -0.232619 -5.55811
lowerneck 6.67718 -0.845491 -1.92562
upperneck 29.4915 -1.49701 2.22393
head 8.10782 -0.675478 1.02833
rclavicle 1.39025e-014 6.11263e-015
rhumerus 156.828 -162.032 -257.405
rradius 15.0902
rwrist 31.8162
rhand -17.7641 14.121
rfingers 7.12502
rthumb 8.49797 -15.688
lclavicle 1.39025e-014 6.11263e-015
lhumerus -30.875 22.6992 80.3024
lradius 32.7925
lwrist -14.9313
lhand -9.88724 -6.72666
lfingers 7.12502
lthumb 16.0922 22.6252
rfemur -2.81078 8.43183 24.8722
rtibia 25.8271
rfoot -16.1887 -9.16528
rtoes -7.09072
lfemur -17.5843 -10.4737 -13.1883
ltibia 43.999
lfoot -14.8504 -5.69294
ltoes -7.11581
